<?xml version="1.0" encoding="UTF-8" standalone="no"?>
<svg
   xmlns:dc="http://purl.org/dc/elements/1.1/"
   xmlns:cc="http://creativecommons.org/ns#"
   xmlns:rdf="http://www.w3.org/1999/02/22-rdf-syntax-ns#"
   xmlns:svg="http://www.w3.org/2000/svg"
   xmlns="http://www.w3.org/2000/svg"
   xmlns:sodipodi="http://sodipodi.sourceforge.net/DTD/sodipodi-0.dtd"
   xmlns:inkscape="http://www.inkscape.org/namespaces/inkscape"
   version="1.0"
   width="1810"
   height="2192.5"
   viewBox="0 0 1448 1754"
   preserveAspectRatio="xMidYMid meet"
   id="svg2"
   inkscape:version="0.48.4 r9939"
   sodipodi:docname="abc.svg">
  <title
     id="title3011">Clube Atlético Mineiro logo</title>
  <defs
     id="defs28" />
  <sodipodi:namedview
     pagecolor="#ffffff"
     bordercolor="#666666"
     borderopacity="1"
     objecttolerance="10"
     gridtolerance="10"
     guidetolerance="10"
     inkscape:pageopacity="0"
     inkscape:pageshadow="2"
     inkscape:window-width="1600"
     inkscape:window-height="844"
     id="namedview26"
     showgrid="false"
     inkscape:zoom="0.22507243"
     inkscape:cx="827.24725"
     inkscape:cy="1096.25"
     inkscape:window-x="-4"
     inkscape:window-y="-4"
     inkscape:window-maximized="1"
     inkscape:current-layer="svg2" />
  <metadata
     id="metadata4">
Created by potrace 1.11, written by Peter Selinger 2001-2013
<rdf:RDF>
  <cc:Work
     rdf:about="">
    <dc:format>image/svg+xml</dc:format>
    <dc:type
       rdf:resource="http://purl.org/dc/dcmitype/StillImage" />
    <dc:title>Clube Atlético Mineiro logo</dc:title>
  </cc:Work>
</rdf:RDF>
</metadata>
  <g
     transform="matrix(0.1,0,0,-0.1,0,1754)"
     id="g6"
     style="fill:#000000;stroke:none">
    <path
       d="m 7185,17272 c -166,-239 -516,-624 -810,-892 -1072,-976 -2293,-1517 -3630,-1611 -211,-15 -703,-6 -905,15 -515,55 -881,135 -1482,322 -47,15 -93,24 -100,21 -10,-3 -21,-55 -37,-178 C 27,13446 52,11979 296,10560 599,8795 1239,7094 2205,5485 3354,3573 4991,1779 6887,357 c 250,-188 334,-247 350,-247 40,0 788,576 1213,934 151,128 470,409 580,511 30,28 125,116 210,196 85,79 261,250 391,380 2344,2346 3896,5138 4477,8054 127,637 202,1208 253,1940 17,241 23,1215 10,1506 -20,434 -54,829 -106,1249 -31,244 -32,250 -54,250 -9,0 -57,-14 -107,-30 -223,-76 -558,-166 -819,-219 -758,-156 -1552,-161 -2272,-16 -845,171 -1669,546 -2399,1092 -494,370 -981,852 -1308,1296 -31,42 -62,77 -69,77 -7,-1 -30,-26 -52,-58 z m 119,-942 c 98,-118 352,-375 495,-504 721,-645 1553,-1106 2470,-1371 1014,-292 2124,-333 3270,-119 175,33 196,35 206,21 12,-16 35,-233 60,-557 53,-690 43,-1502 -25,-2210 C 13582,9557 12919,7587 11810,5739 10865,4165 9610,2712 8145,1494 7831,1234 7266,800 7241,800 c -29,0 -586,426 -926,709 -394,328 -704,610 -1088,990 C 3801,3911 2687,5484 1898,7198 880,9413 473,11749 695,14105 c 28,288 23,268 59,262 17,-3 93,-17 169,-31 516,-97 891,-130 1432,-130 480,0 711,18 1140,90 858,143 1692,471 2440,961 472,310 953,729 1245,1086 30,37 55,67 56,67 0,0 31,-36 68,-80 z"
       id="path10"
       inkscape:connector-curvature="0" />
    <path
       d="m 7045,15792 c -766,-755 -1732,-1313 -2794,-1617 -974,-277 -2026,-334 -3088,-164 -68,10 -138,19 -158,19 -31,0 -35,-3 -35,-27 0,-16 -7,-116 -15,-223 -57,-774 -41,-1596 46,-2385 24,-224 85,-650 94,-665 4,-7 1949,-10 6145,-10 l 6140,0 4,23 c 41,189 114,833 148,1302 21,286 18,1365 -5,1675 -9,135 -20,260 -23,279 l -5,33 -52,-5 c -29,-3 -128,-16 -222,-30 -863,-128 -1746,-105 -2553,69 -1194,256 -2291,830 -3178,1662 -88,82 -176,170 -197,195 -21,26 -46,47 -55,47 -9,0 -98,-80 -197,-178 z M 3740,13431 c 249,-57 478,-176 606,-313 30,-33 54,-64 52,-69 -2,-5 -102,-70 -222,-144 l -219,-134 -40,45 c -91,104 -214,154 -397,162 -69,3 -137,0 -169,-7 -139,-30 -249,-118 -318,-258 -63,-126 -78,-206 -77,-413 1,-160 3,-183 28,-265 15,-49 39,-110 53,-135 44,-75 140,-167 212,-202 60,-30 73,-33 190,-36 140,-4 224,10 316,53 67,32 147,103 181,161 23,40 28,43 47,32 19,-9 343,-209 415,-254 21,-14 22,-16 6,-45 -23,-45 -161,-186 -224,-229 -292,-198 -697,-255 -1035,-145 -218,71 -406,206 -530,380 -58,81 -148,269 -175,365 -68,244 -64,481 11,716 62,194 151,336 294,472 164,154 351,244 592,282 88,14 305,4 403,-19 z m 6680,-33 c 5,-13 86,-318 180,-678 212,-810 197,-760 215,-760 8,0 15,3 15,6 0,14 361,1410 370,1432 l 10,22 404,0 c 328,0 406,-3 415,-14 8,-10 10,-304 9,-1097 l -3,-1084 -249,-3 c -175,-2 -253,1 -262,9 -12,10 -14,121 -14,654 0,704 -7,975 -24,975 -6,0 -113,-368 -237,-818 l -226,-817 -206,-3 c -189,-2 -207,-1 -215,15 -5,10 -109,376 -231,813 -122,437 -225,803 -227,813 -3,9 -12,17 -20,17 -12,0 -14,-119 -16,-827 l -3,-828 -249,-3 c -175,-2 -253,1 -262,9 -12,10 -14,188 -14,1094 0,595 3,1085 7,1088 3,4 190,7 415,7 l 408,0 10,-22 z m -3107,-28 c 9,-19 188,-494 397,-1055 209,-561 385,-1030 390,-1043 23,-54 32,-52 -264,-52 -212,0 -276,3 -284,13 -6,7 -40,96 -75,197 l -63,185 -395,3 -395,2 -69,-200 -70,-200 -273,0 c -226,0 -274,2 -278,14 -6,16 -15,-8 336,931 144,385 305,815 357,955 52,140 99,262 104,272 9,17 29,18 287,16 l 277,-3 18,-35 z"
       id="path12"
       inkscape:connector-curvature="0" />
    <path
       d="m 6982,12738 c -184,-568 -222,-686 -222,-696 0,-9 64,-12 255,-12 233,0 255,1 255,17 0,9 -34,123 -76,252 -42,130 -95,294 -118,366 -50,156 -64,167 -94,73 z"
       id="path14"
       inkscape:connector-curvature="0" />
    <path
       d="m 1170,10320 c 0,-61 149,-697 235,-1002 333,-1182 839,-2344 1493,-3428 209,-347 488,-770 508,-770 12,0 14,416 14,2610 l 0,2610 -1125,0 c -1110,0 -1125,0 -1125,-20 z"
       id="path16"
       inkscape:connector-curvature="0" />
    <path
       d="m 3810,7439 0,-2901 97,-126 c 378,-495 777,-956 1267,-1466 241,-251 642,-636 662,-636 12,0 14,528 14,4015 l 0,4015 -1020,0 -1020,0 0,-2901 z"
       id="path18"
       inkscape:connector-curvature="0" />
    <path
       d="m 6230,6141 0,-4199 208,-174 c 390,-328 765,-618 799,-618 21,0 64,31 313,224 185,144 376,299 569,462 l 141,119 0,4193 0,4192 -1015,0 -1015,0 0,-4199 z"
       id="path20"
       inkscape:connector-curvature="0" />
    <path
       d="m 8650,6335 c 0,-3625 1,-4005 16,-4005 20,0 775,754 965,965 358,395 632,722 937,1118 l 122,158 0,2885 0,2884 -1020,0 -1020,0 0,-4005 z"
       id="path22"
       inkscape:connector-curvature="0" />
    <path
       d="m 11080,7750 c 0,-2207 2,-2590 14,-2590 23,0 366,532 583,905 678,1164 1181,2389 1488,3625 70,279 126,532 132,598 l 6,52 -1112,0 -1111,0 0,-2590 z"
       id="path24"
       inkscape:connector-curvature="0" />
  </g>
</svg>
